<?xml version="1.0" encoding="utf-8"?>
<!-- Generator: Adobe Illustrator 26.4.1, SVG Export Plug-In . SVG Version: 6.00 Build 0)  -->
<svg version="1.1" id="Layer_1" xmlns="http://www.w3.org/2000/svg" xmlns:xlink="http://www.w3.org/1999/xlink" x="0px" y="0px"
	 viewBox="0 0 1080 1080" style="enable-background:new 0 0 1080 1080;" xml:space="preserve">
<style type="text/css">
	.st0{clip-path:url(#SVGID_00000098943813538111599800000009187626686905092497_);}
	.st1{fill:none;stroke:#FFFFFF;stroke-width:16;}
	.st2{clip-path:url(#SVGID_00000098209862653055597400000017752328881845368489_);}
	.st3{fill:#FFFFFF;}
</style>
<g>
	<defs>
		<circle id="SVGID_1_" cx="540" cy="540" r="540"/>
	</defs>
	<clipPath id="SVGID_00000131329311404103068800000014156245632723980196_">
		<use xlink:href="#SVGID_1_"  style="overflow:visible;"/>
	</clipPath>
	<g style="clip-path:url(#SVGID_00000131329311404103068800000014156245632723980196_);">
		<path class="st1" d="M540,0C241.8,0,0,241.8,0,540s241.8,540,540,540s540-241.8,540-540S838.2,0,540,0z"/>
	</g>
</g>
<g>
	<defs>
		<rect id="SVGID_00000084509750543655084670000003047312449003515071_" x="213" y="277.8" width="654.1" height="524.4"/>
	</defs>
	<clipPath id="SVGID_00000009564323647613014620000002497949276547547287_">
		<use xlink:href="#SVGID_00000084509750543655084670000003047312449003515071_"  style="overflow:visible;"/>
	</clipPath>
	<g style="clip-path:url(#SVGID_00000009564323647613014620000002497949276547547287_);">
		<path class="st3" d="M555.4,442.3c36.3,0,65.8,29.4,65.8,65.8c0,36.3-29.4,65.8-65.8,65.8s-65.8-29.4-65.8-65.8
			C489.7,471.8,519.1,442.3,555.4,442.3z M589,474.6c-18.5-18.5-48.6-18.5-67.1,0c-18.6,18.5-18.6,48.6,0,67.1
			c18.5,18.5,48.5,18.5,67.1,0C607.5,523.2,607.5,493.1,589,474.6z M546.6,379.5h17.7c10.2,0,18.6,8.4,18.6,18.6l0.2,7.1
			c8.9,2.4,17.7,6,25.6,10.6l0.3,0v0c5.4-5.4,9.3-10.3,18-10.3c4.8,0,9.5,1.8,13.1,5.4l13.2,13.3c6.6,7.8,6.3,18.6-0.7,25.5l-5,5
			c0,0,0,0.1,0,0.2c4.6,8,8.3,16.7,10.6,25.6c0.3,1.2,13.1-2.8,20.9,6.3c3,3.3,4.8,7.7,4.8,12.4V517c0,10.2-8.4,18.6-18.6,18.6v0
			h-6.9v0l-0.2,0.2c-2.4,9-6,17.6-10.6,25.7c0,0.1-0.1,0.1,0,0.2l5.6,5.7c6.6,7.8,6.3,18.5-0.7,25.5v0l-12.5,12.5
			c-7.2,7.2-19,7.2-26.2,0v0l-5-5c0,0-0.1,0-0.2,0.1c-8,4.6-16.8,8.3-25.6,10.6c-1.2,0.3,2.6,12-5.7,20.2c-3.4,3.4-8,5.4-13.1,5.4
			h-17.7c-10.2,0-18.6-8.4-18.6-18.6l-0.2-7.1c-8.9-2.4-17.7-6.1-25.6-10.6c-1-0.6-6.6,10.4-18.3,10.4c-4.8,0-9.5-1.8-13.1-5.5v0
			l-12.5-12.5c-7.2-7.2-7.2-19,0-26.3l5-5c0,0,0-0.1-0.1-0.2c-4.6-8-8.3-16.8-10.6-25.7c-0.3-1.2-12,2.6-20.2-5.6
			c-3.4-3.4-5.4-8-5.4-13.1v-17.7c0-10.2,8.4-18.6,18.6-18.6l7.1-0.2c2.4-9,6-17.6,10.6-25.6l0-0.3v0c-5.5-5.5-10.3-9.3-10.3-18h0
			c0-4.8,1.8-9.5,5.4-13.1v0l13.2-13.1c7.8-6.7,18.6-6.4,25.6,0.6l5,5c0,0,0.1,0,0.2,0c8-4.6,16.8-8.3,25.6-10.6l0.2-0.2h0v-6.9h0
			C528,387.9,536.3,379.5,546.6,379.5z M564.3,397.9l-17.8,0.1c0,0-0.1,0.1-0.1,0.2h0v6.9h0c0,8.4-5.6,15.8-13.8,17.9
			c-7.5,2-14.6,5-21.2,8.8c-7.3,4.2-16.5,3-22.4-2.9l-5.2-4.9l-12.6,12.6v0c0,0,0,0.1,0,0.2h0l5,5l0,0c6,6,7.2,15.1,3,22.4
			c-3.8,6.6-6.8,13.8-8.8,21.2c-2.2,8.2-9.5,13.8-17.9,13.8l-7,0v18c0.8,0.8,10.7-2,18.4,3.9c7.1,5.5,6.4,12.1,10.1,20.4l5.3,10.8
			c4.2,7.3,3,16.5-2.9,22.4l-4.9,5l12.6,12.7c1,0.7,5.8-8.8,15.9-10.2c8.9-1.2,13,4,21.6,7.3l11.4,3.8c8.1,2.2,13.8,9.5,13.8,17.9
			c0,1.3-0.3,7.1,0.2,7.1l17.9-0.1c0.7-0.7-2-10.7,3.9-18.3c5.5-7.2,12.1-6.4,20.4-10.1l10.8-5.3c7.3-4.2,16.5-3,22.4,2.9l4.9,4.9
			h0.3l12.5-12.5c0.7-1-8.8-5.8-10.2-15.9c-0.5-4,0.2-8,2.4-11.7c3.8-6.6,6.8-13.8,8.8-21.2c2.2-8.2,9.5-13.8,17.9-13.8h6.9l0.2-0.2
			l-0.1-17.9c-0.8-0.8-10.7,2-18.3-3.9c-3.2-2.4-5.6-5.9-6.7-10c-2-7.4-5-14.6-8.8-21.2c-4.2-7.3-3-16.5,2.9-22.4l4.9-5.1
			l-12.7-12.6l-5,4.9c-6,6-15.1,7.2-22.4,2.9c-6.7-3.8-13.7-6.8-21.2-8.8c-8.1-2.2-13.8-9.5-13.8-17.9l-0.1-7
			C564.4,397.9,564.3,397.9,564.3,397.9z M483.7,315.8c0-25.6-50.6-23.3-50.5-4.4l-0.8,69.7c-0.4,13.8-0.8,29.2-1,57.8
			c0,5-4.1,9-9.1,9h-35.9c-0.1,49.2,23.1,154.9,78.4,180v0c3.1,1.4,5.3,4.6,5.3,8.2l2,147.4l207.4-2.8l-0.2-163.7
			c-0.2-1.7,0.2-3.4,1-5c21.5-41.4,18.7-128.2,16.7-191.6c-0.6-17.4-1.1-33.5-1.1-47.5c0-18.9-11.3-32.4-28-35
			c-4.5-0.7-8.9-0.5-12.7,0.6c-4.6,1.3-8.3,4.1-9.7,8v37.6c0,5.1-4.1,9.2-9.2,9.2c-5.1,0-9.2-4.1-9.2-9.2v-38.5
			c-0.4-3.6-0.8-10.6-1.1-16.6c-0.2-3.3-0.4-6.3-0.6-8.5h0c-1.2-18.4-26.9-24.8-41.8-19.3c-6.4,2.4-11,7.1-11,14.5v42.1
			c0,5.1-4.1,9.2-9.2,9.2c-5.1,0-9.2-4.1-9.2-9.2v-42.8c-0.2-12.8-14.6-18.4-26.2-18.4v0c-11.9,0-26.3,5.4-26.3,19v42.1
			c0,5.1-4.1,9.2-9.2,9.2c-5.1,0-9.2-4.1-9.2-9.2V315.8z M563.9,292.4c22.8-22.2,77.8-10.8,79.9,26.8v0c0,0.7,0.2,2.2,0.3,4.2
			c8-3.9,17.6-4.9,26.7-3.4c6.2,1,12.6,3.2,18.4,6.7h145.1c18.1,0,32.9,14.8,32.9,32.9v55.7c0,18.1-14.8,32.9-32.9,32.9H716.1
			c1.6,61.2,1,130.8-18.6,170.6l0.2,171.2c0,5-4,9.1-9,9.2l-225.6,3c-5,0.1-9.2-4-9.2-9l-2-150.9c-59-32.1-83.8-138.3-83.8-194
			h-42.9c-1.7,0-3.3-0.5-4.7-1.3l-101.7-51.3c-6.7-3.3-6.7-12.9,0-16.3l101.7-51.2c1.4-0.8,3-1.3,4.7-1.3h89.7c0-4.6,0-9.6,0-15.2
			c-0.1-34.8,55.6-43,78-19.4c8.8-9.2,22.6-13.6,35.4-13.6v0C541.3,278.4,555.1,282.8,563.9,292.4z M707.3,344.9
			c4.3,7.6,7,17,7,28.1c0,15.4,0.8,37.9,1.4,56.7H727v-84.8H707.3z M379.4,429.7h33.8c0.4-40.4,1.3-49.1,1.6-84.8h-80.5v84.8h44.2
			C378.8,429.7,379.1,429.7,379.4,429.7z M803.5,344.9v84.8h30.8c8,0,14.5-6.6,14.5-14.6v-55.7c0-8-6.6-14.5-14.5-14.5H803.5z
			 M785.1,429.7v-84.8h-39.8v84.8H785.1z M316,424v-73.4l-72.8,36.7L316,424z"/>
	</g>
</g>
</svg>
