<?xml version="1.0" encoding="utf-8"?>
<!-- Generator: Adobe Illustrator 26.4.1, SVG Export Plug-In . SVG Version: 6.00 Build 0)  -->
<svg version="1.1" id="Layer_1" xmlns="http://www.w3.org/2000/svg" xmlns:xlink="http://www.w3.org/1999/xlink" x="0px" y="0px"
	 viewBox="0 0 1080 1080" style="enable-background:new 0 0 1080 1080;" xml:space="preserve">
<style type="text/css">
	.st0{clip-path:url(#SVGID_00000042694579048997230700000001265082929327304381_);}
	.st1{fill:none;stroke:#FFFFFF;stroke-width:16;}
	.st2{clip-path:url(#SVGID_00000039818921045628799930000013990251268261865357_);}
	.st3{fill:#FFFFFF;}
</style>
<g>
	<defs>
		<circle id="SVGID_1_" cx="540" cy="540" r="540"/>
	</defs>
	<clipPath id="SVGID_00000062901746013838634720000013220523151126399153_">
		<use xlink:href="#SVGID_1_"  style="overflow:visible;"/>
	</clipPath>
	<g style="clip-path:url(#SVGID_00000062901746013838634720000013220523151126399153_);">
		<path class="st1" d="M540,0C241.8,0,0,241.8,0,540s241.8,540,540,540s540-241.8,540-540S838.2,0,540,0z"/>
	</g>
</g>
<g>
	<defs>
		<rect id="SVGID_00000116941158906374510550000000984162713840549268_" x="251.7" y="215.6" width="576.7" height="648.8"/>
	</defs>
	<clipPath id="SVGID_00000160171545776409517380000009406227530963601593_">
		<use xlink:href="#SVGID_00000116941158906374510550000000984162713840549268_"  style="overflow:visible;"/>
	</clipPath>
	<g style="clip-path:url(#SVGID_00000160171545776409517380000009406227530963601593_);">
		<path class="st3" d="M506.4,264.9v-41.2c0-4.5,3.6-8.1,8.1-8.1c4.5,0,8.1,3.6,8.1,8.1v41.2c0,4.5-3.6,8.1-8.1,8.1
			C510,273,506.4,269.3,506.4,264.9z M363.4,335.5c2.1,0,4.1-0.8,5.7-2.4c3.2-3.2,3.2-8.3,0-11.4L340,292.6c-3.2-3.2-8.3-3.2-11.4,0
			c-3.2,3.1-3.2,8.3,0,11.4l29.1,29.1C359.3,334.7,361.3,335.5,363.4,335.5z M300.8,470.4h-41.2c-4.5,0-8.1,3.6-8.1,8.1
			c0,4.5,3.6,8.1,8.1,8.1h41.2c4.5,0,8.1-3.6,8.1-8.1C308.9,474,305.3,470.4,300.8,470.4z M665.5,335.5c2.1,0,4.1-0.8,5.7-2.4
			l29.1-29.1c3.2-3.2,3.2-8.3,0-11.4c-3.1-3.2-8.3-3.2-11.4,0l-29.1,29.1c-3.2,3.2-3.2,8.3,0,11.4
			C661.3,334.7,663.4,335.5,665.5,335.5z M826,833.1c-2.9,10.9-9.9,20-19.6,25.6c-6.5,3.7-13.6,5.6-20.9,5.6
			c-3.7,0-7.4-0.5-11.1-1.5c-10.9-2.9-20-9.9-25.6-19.6L697.2,754c-1.1-1.9-1.4-4.1-0.8-6.1c0.6-2.1,1.9-3.8,3.8-4.9l3.7-2.1
			l-19.6-33.9c-14,4.5-28.4,6.7-42.7,6.7c-12.2,0-24.3-1.6-36.1-4.7c-0.6,5.4-2.9,10.3-6.4,14.1c4.1,4.4,6.6,10.3,6.6,16.7
			c0,13.7-11.1,24.8-24.8,24.8H579c-3.6,19.5-20.7,34.3-41.3,34.3h-46.6c-20.5,0-37.7-14.8-41.3-34.3H448
			c-13.7,0-24.8-11.1-24.8-24.8c0-6.4,2.5-12.3,6.6-16.7c-4.1-4.4-6.6-10.3-6.6-16.7c0-6.5,2.5-12.3,6.6-16.7
			c-4.1-4.4-6.6-10.3-6.6-16.7c0-12,8.5-22,19.9-24.3v-0.3c0-15-6.9-27.8-19.4-36.1c-46.1-30.6-73.6-81.8-73.6-137.1
			c0-90.6,73.7-164.4,164.4-164.4c38,0,75.1,13.3,104.4,37.4c27.5,22.7,47,53.8,55.4,88.2c1.2,0.3,2.4,0.6,3.6,0.9
			c36.3,9.7,66.6,33,85.4,65.5C782,535.1,787,573,777.3,609.3c-7.1,26.5-21.4,49.8-41.3,67.8l19.6,33.9l3.7-2.1
			c3.9-2.2,8.8-0.9,11,3l51.6,89.3C827.5,810.8,829,822.2,826,833.1z M459.2,647.9h63.2c-1-1.5-1.9-3.1-2.8-4.7
			c-12.2-21.1-18.3-44.1-18.8-67c-4.9,2.4-10.2,3.7-15.8,3.9c-0.1,0-0.1,0-0.2,0c-0.1,0-0.1,0-0.2,0c-14.6-0.4-27-7.8-32.5-18.5
			c-0.6,0-1.2,0.1-1.7,0.1c-19.5,0-35.4-15.9-35.4-35.4c0-3.8,0.6-7.5,1.8-11c-8.6-6.6-13.9-17-13.9-28.1c0-11.6,5.7-22.1,14.7-28.7
			c-3.2-5.4-4.9-11.6-4.9-18c0-19.1,15.2-34.7,34.1-35.4c4.5-16.5,19.5-28.4,37.2-28.4c12.4,0,23.4,5.9,30.5,15
			c7.1-9.1,18.1-15,30.5-15c17.6,0,32.5,11.8,37.1,28c16,2.4,28.8,14.5,32.1,30.1c13.9-2.8,28.3-3.4,42.5-1.8
			c-18.3-62.3-76.3-106.4-142.2-106.4c-81.7,0-148.2,66.5-148.2,148.2c0,49.8,24.8,96,66.4,123.6
			C449.7,609.9,459.1,627.4,459.2,647.9z M502,554.8c0.9-7.1,2.4-14.2,4.4-21.1v-33.5h-21.7c-4.5,0-8.1-3.6-8.1-8.1
			c0-4.5,3.6-8.1,8.1-8.1h21.7v-31h-21.7c-4.5,0-8.1-3.6-8.1-8.1s3.6-8.1,8.1-8.1h21.7v-21.6c0-12.4-10.1-22.4-22.4-22.4
			c-12,0-21.8,9.4-22.4,21.3c-0.1,2.4-1.3,4.5-3.1,6c-1.9,1.4-4.3,2-6.6,1.5c-1.3-0.3-2.6-0.4-3.9-0.4c-10.6,0-19.2,8.6-19.2,19.2
			c0,4.3,1.5,8.4,4.1,11.8c11-1.2,21.6,4.6,26.2,15c1,2.3,1.8,4.7,2.3,7.1c0.9,4.4-1.9,8.6-6.3,9.6c-4.4,0.9-8.6-1.9-9.6-6.3
			c-0.3-1.3-0.7-2.6-1.3-3.9c-1.9-4.3-6.7-6.6-11.3-5.3c-8.3,2.3-14,9.9-14,18.5c0,7.6,4.5,14.4,11.3,17.6c2.1,1,3.7,2.8,4.4,5
			c0.7,2.2,0.4,4.6-0.8,6.6c-1.8,3-2.8,6.5-2.8,10c0,10.2,8,18.5,18,19.2c1.5-12.3,11.4-22.7,25.6-26.5c4.3-1.1,8.7,1.4,9.9,5.7
			c1.1,4.3-1.4,8.7-5.7,9.9c-8.1,2.1-13.8,8-13.8,14.2c0,8,8.8,14.7,19.8,15.1C491.6,563.7,497.9,560.4,502,554.8z M522.5,497.8
			c3.2-5.1,6.8-10.1,10.7-14.8h-10.7V497.8z M571.1,451.1c8.8-5.1,18-9.1,27.4-12.2c-1.5-8.3-7.5-15-15.4-17.4
			c-2.8,18-18,31.8-36.8,32.5c-4.4,0.2-8.2-3.3-8.3-7.8c-0.1-4.5,3.3-8.2,7.8-8.3c12.1-0.4,21.6-10.3,21.6-22.4
			c0-12.4-10.1-22.4-22.4-22.4c-12.4,0-22.4,10.1-22.4,22.4v51.5h21.7c1.3,0,2.6,0.3,3.7,0.9C554.9,461.5,562.6,455.9,571.1,451.1z
			 M439.3,672.7c0,4.8,3.9,8.7,8.7,8.7h103.9c-6.3-5.2-12.2-11-17.6-17.3H448C443.2,664.1,439.3,667.9,439.3,672.7z M562.4,764.5
			h-95.9c3.3,10.5,13.1,18.2,24.7,18.2h46.6C549.3,782.6,559.1,775,562.4,764.5z M589.5,739.7c0-4.8-3.9-8.7-8.7-8.7H448
			c-4.8,0-8.7,3.9-8.7,8.7c0,4.8,3.9,8.7,8.7,8.7h132.9C585.7,748.3,589.5,744.4,589.5,739.7z M589,703.4c-4.3-1.7-8.6-3.7-12.8-5.9
			H448c-4.8,0-8.7,3.9-8.7,8.7c0,4.8,3.9,8.7,8.7,8.7h132.9c4.8,0,8.7-3.9,8.7-8.7C589.5,705.2,589.4,704.3,589,703.4z M703.6,680.7
			c28.8-16.6,49.4-43.5,58-75.6c8.6-32.1,4.2-65.7-12.4-94.5c-16.6-28.8-43.5-49.4-75.6-58c-32.1-8.6-65.7-4.2-94.5,12.4
			c-59.5,34.3-79.9,110.6-45.6,170.1c23,39.9,65,62.2,108,62.2C662.7,697.4,684.1,692,703.6,680.7z M717.9,732.7l23.6-13.7
			l-18.3-31.7c-3.7,2.6-7.5,5.1-11.5,7.4c-4,2.3-8,4.4-12.2,6.2L717.9,732.7z M807.9,809.2l-47.5-82.4l-45.1,26l47.6,82.4
			c3.5,6,9.1,10.3,15.8,12.1c6.8,1.8,13.8,0.9,19.7-2.6c6-3.5,10.3-9.1,12.1-15.8C812.2,822.2,811.3,815.2,807.9,809.2z
			 M693.3,662.8c-16.3,9.4-34.1,13.9-51.7,13.9c-35.9,0-70.9-18.6-90.1-51.9c-13.9-24-17.6-52-10.4-78.8c7.2-26.8,24.4-49.2,48.4-63
			c49.6-28.6,113.2-11.6,141.8,38C759.9,570.6,742.9,634.2,693.3,662.8z M717.3,529.1c-16.2-28.1-45.7-43.8-76.1-43.8
			c-14.9,0-29.9,3.8-43.7,11.7c-41.9,24.2-56.3,77.9-32.1,119.8c24.2,41.9,77.9,56.3,119.8,32.1
			C727.1,624.7,741.5,570.9,717.3,529.1z"/>
	</g>
</g>
</svg>
