<?xml version="1.0" encoding="utf-8"?>
<!-- Generator: Adobe Illustrator 26.4.1, SVG Export Plug-In . SVG Version: 6.00 Build 0)  -->
<svg version="1.1" id="Layer_1" xmlns="http://www.w3.org/2000/svg" xmlns:xlink="http://www.w3.org/1999/xlink" x="0px" y="0px"
	 viewBox="0 0 1080 1080" style="enable-background:new 0 0 1080 1080;" xml:space="preserve">
<style type="text/css">
	.st0{clip-path:url(#SVGID_00000023984234600562073150000001858432794167102609_);}
	.st1{fill:none;stroke:#FFFFFF;stroke-width:16;}
	.st2{clip-path:url(#SVGID_00000176036744324176706900000018322256430006306446_);}
	.st3{fill:#FFFFFF;}
</style>
<g>
	<defs>
		<circle id="SVGID_1_" cx="540" cy="540" r="540"/>
	</defs>
	<clipPath id="SVGID_00000133525654155668828750000007378129156700018623_">
		<use xlink:href="#SVGID_1_"  style="overflow:visible;"/>
	</clipPath>
	<g style="clip-path:url(#SVGID_00000133525654155668828750000007378129156700018623_);">
		<path class="st1" d="M540,0C241.8,0,0,241.8,0,540s241.8,540,540,540s540-241.8,540-540S838.2,0,540,0z"/>
	</g>
</g>
<g>
	<defs>
		<rect id="SVGID_00000021838380328504032820000006358063297540010934_" x="272" y="272.6" width="536" height="534.8"/>
	</defs>
	<clipPath id="SVGID_00000096027393604814012010000012576612835947569549_">
		<use xlink:href="#SVGID_00000021838380328504032820000006358063297540010934_"  style="overflow:visible;"/>
	</clipPath>
	<g style="clip-path:url(#SVGID_00000096027393604814012010000012576612835947569549_);">
		<path class="st3" d="M807,539.9V375.4c0-56.9-46.2-103.2-103.2-103.2H374.7c-56.9,0-103.2,46.2-103.2,103.2v328.8
			c0,56.9,46.2,103.2,103.2,103.2H539c0,0,0.1,0,0.3,0c0.1,0,0.1,0,0.3,0h164.3c56.9,0,103.2-46.2,103.2-103.2V539.8V539.9z
			 M778.1,375.4v150.1H553.7V301.1h150.1C744.7,301.1,778.1,334.5,778.1,375.4z M374.7,301.1h150.1v224.4H300.4V375.4
			C300.4,334.5,333.8,301.1,374.7,301.1z M300.4,704.5V554.4h224.4v224.4H374.7C333.8,778.8,300.4,745.4,300.4,704.5z M703.8,778.8
			H553.7V554.4h224.4v150.1C778.1,745.4,744.7,778.8,703.8,778.8z M349,417.1c0-7.9,6.5-14.4,14.5-14.4h44.9v-44.9
			c0-7.9,6.5-14.5,14.5-14.5c7.9,0,14.4,6.5,14.4,14.5v44.9h44.9c7.9,0,14.5,6.5,14.5,14.4c0,7.9-6.5,14.5-14.5,14.5h-44.9v44.9
			c0,7.9-6.5,14.5-14.4,14.5c-7.9,0-14.5-6.5-14.5-14.5v-44.9h-44.9C355.5,431.6,349,425.1,349,417.1z M588.5,411.6
			c0-7.9,6.5-14.5,14.5-14.5h131.2c7.9,0,14.4,6.5,14.4,14.5c0,7.9-6.5,14.4-14.4,14.4H603C595,426.1,588.5,419.6,588.5,411.6z
			 M472.7,688c5.6,5.6,5.6,14.7,0,20.4c-2.9,2.9-6.5,4.2-10.3,4.2c-3.8,0-7.4-1.4-10.3-4.2l-32.1-32.1L388,708.4
			c-2.9,2.9-6.5,4.2-10.3,4.2c-3.8,0-7.4-1.4-10.3-4.2c-5.6-5.6-5.6-14.7,0-20.4l32.1-32.1l-32.1-32.1c-5.6-5.6-5.6-14.7,0-20.4
			c5.6-5.6,14.7-5.6,20.4,0l32.1,32.1l32.1-32.1c5.6-5.6,14.7-5.6,20.4,0c5.6,5.6,5.6,14.7,0,20.4L440.3,656l32.1,32.1H472.7z
			 M753.5,656c0,7.9-6.5,14.5-14.4,14.5H597.4c-7.9,0-14.5-6.5-14.5-14.5c0-7.9,6.5-14.4,14.5-14.4h141.7
			C747,641.5,753.5,648,753.5,656z M653.9,600.5v-10c0-7.9,6.5-14.5,14.5-14.5c7.9,0,14.5,6.5,14.5,14.5v10
			c0,7.9-6.5,14.5-14.5,14.5C660.4,614.9,653.9,608.4,653.9,600.5z M682.8,711.6v10c0,7.9-6.5,14.5-14.5,14.5
			c-7.9,0-14.5-6.5-14.5-14.5v-10c0-7.9,6.5-14.5,14.5-14.5C676.3,697.1,682.8,703.6,682.8,711.6z"/>
	</g>
</g>
</svg>
